HIERARCHY
ROOT Hips
{
	OFFSET 0.000000 0.000000 0.000000
	CHANNELS 6 Xposition Yposition Zposition Xrotation Yrotation Zrotation
	JOINT LeftUpLeg_virtual
	{
		OFFSET 0.000000 0.000000 0.000000
		CHANNELS 3 Xrotation Yrotation Zrotation
		JOINT LeftUpLeg
		{
			OFFSET 11.394100 -6.187798 -0.413800
			CHANNELS 3 Xrotation Yrotation Zrotation
			JOINT LeftLeg
			{
				OFFSET 0.430247 -32.302673 3.732800
				CHANNELS 3 Xrotation Yrotation Zrotation
				JOINT LeftFoot
				{
					OFFSET -0.430247 -48.264931 -6.423300
					CHANNELS 3 Xrotation Yrotation Zrotation
					JOINT LeftToeBase
					{
						OFFSET 4.230900 -16.068199 23.438400
						CHANNELS 3 Xrotation Yrotation Zrotation
						JOINT LeftToe_End
						{
							OFFSET 4.510700 0.695400 19.974600
							CHANNELS 3 Xrotation Yrotation Zrotation
							End Site
							{
								OFFSET 0 0 0
							}
						}
					}
				}
			}
		}
	}
	JOINT RightUpLeg_virtual
	{
		OFFSET 0.000000 0.000000 0.000000
		CHANNELS 3 Xrotation Yrotation Zrotation
		JOINT RightUpLeg
		{
			OFFSET -11.333700 -6.187798 -0.413800
			CHANNELS 3 Xrotation Yrotation Zrotation
			JOINT RightLeg
			{
				OFFSET -0.430392 -32.302628 3.733000
				CHANNELS 3 Xrotation Yrotation Zrotation
				JOINT RightFoot
				{
					OFFSET 0.430392 -48.264973 -6.423500
					CHANNELS 3 Xrotation Yrotation Zrotation
					JOINT RightToeBase
					{
						OFFSET -4.230900 -16.068199 23.438400
						CHANNELS 3 Xrotation Yrotation Zrotation
						JOINT RightToe_End
						{
							OFFSET -4.510700 0.695400 19.974600
							CHANNELS 3 Xrotation Yrotation Zrotation
							End Site
							{
								OFFSET 0 0 0
							}
						}
					}
				}
			}
		}
	}
	JOINT Spine_virtual
	{
		OFFSET 0.000000 0.000000 0.000000
		CHANNELS 3 Xrotation Yrotation Zrotation
		JOINT Spine
		{
			OFFSET -0.002400 12.777504 0.315300
			CHANNELS 3 Xrotation Yrotation Zrotation
			JOINT Spine1
			{
				OFFSET -0.002067 5.816869 0.032633
				CHANNELS 3 Xrotation Yrotation Zrotation
				JOINT Spine1_split
				{
					OFFSET -0.002067 5.816869 0.032633
					CHANNELS 3 Xrotation Yrotation Zrotation
					JOINT Spine2
					{
						OFFSET -0.002067 5.816869 0.032633
						CHANNELS 3 Xrotation Yrotation Zrotation
						JOINT Neck_virtual
						{
							OFFSET 0.000000 0.000000 0.000000
							CHANNELS 3 Xrotation Yrotation Zrotation
							JOINT Neck
							{
								OFFSET -0.003700 21.199493 -0.826900
								CHANNELS 3 Xrotation Yrotation Zrotation
								JOINT Head
								{
									OFFSET 0.000000 20.442200 4.834800
									CHANNELS 3 Xrotation Yrotation Zrotation
									JOINT HeadTop_End
									{
										OFFSET 0.000000 34.668396 4.968400
										CHANNELS 3 Xrotation Yrotation Zrotation
										End Site
										{
											OFFSET 0 0 0
										}
									}
								}
							}
						}
						JOINT LeftShoulder_virtual
						{
							OFFSET 0.000000 0.000000 0.000000
							CHANNELS 3 Xrotation Yrotation Zrotation
							JOINT LeftShoulder
							{
								OFFSET 3.288150 8.794197 -1.372250
								CHANNELS 3 Xrotation Yrotation Zrotation
								JOINT LeftShoulder_split
								{
									OFFSET 3.288150 8.794197 -1.372250
									CHANNELS 3 Xrotation Yrotation Zrotation
									JOINT LeftArm
									{
										OFFSET 11.953299 -2.279007 -0.146200
										CHANNELS 3 Xrotation Yrotation Zrotation
										JOINT LeftForeArm
										{
											OFFSET 18.448900 0.000000 0.000000
											CHANNELS 3 Xrotation Yrotation Zrotation
											JOINT LeftHand
											{
												OFFSET 29.527798 0.000000 0.000000
												CHANNELS 3 Xrotation Yrotation Zrotation
												End Site
												{
													OFFSET 0 0 0
												}
											}
										}
									}
								}
							}
						}
						JOINT RightShoulder_virtual
						{
							OFFSET 0.000000 0.000000 0.000000
							CHANNELS 3 Xrotation Yrotation Zrotation
							JOINT RightShoulder
							{
								OFFSET -3.249400 8.794197 -1.372250
								CHANNELS 3 Xrotation Yrotation Zrotation
								JOINT RightShoulder_split
								{
									OFFSET -3.249400 8.794197 -1.372250
									CHANNELS 3 Xrotation Yrotation Zrotation
									JOINT RightArm
									{
										OFFSET -11.953299 -2.279007 -0.146200
										CHANNELS 3 Xrotation Yrotation Zrotation
										JOINT RightForeArm
										{
											OFFSET -18.448900 0.000000 0.000000
											CHANNELS 3 Xrotation Yrotation Zrotation
											JOINT RightHand
											{
												OFFSET -29.527802 0.000000 0.000000
												CHANNELS 3 Xrotation Yrotation Zrotation
												End Site
												{
													OFFSET 0 0 0
												}
											}
										}
									}
								}
							}
						}
					}
				}
			}
		}
	}
}
MOTION
Frames: 4
Frame Time: 0.03333333
1.125335 103.926994 -8.304171 0.000000 0.000000 0.000000 -7.937536 -5.669793 9.373853 6.936361 22.194160 -8.026135 3.231258 2.784883 3.067201 -3.718838 0.953596 2.591067 6.039230 -2.098454 -2.560370 0.000000 0.000000 0.000000 -8.087312 -5.273223 9.169089 -8.792672 -8.245472 -13.613988 21.177114 8.003277 -3.654900 -4.472486 -14.008625 26.040059 0.599027 6.637825 -29.682616 0.000000 0.000000 0.000000 -10.450417 -3.823809 8.627619 -1.082280 -2.469880 -0.329977 7.838182 3.053974 -0.797311 0.173210 -0.136484 0.104901 0.000000 0.000000 0.000000 10.691122 4.197176 -0.418874 -0.434965 -6.681980 -0.212285 -32.553699 -42.617064 -28.969479 0.000000 0.000000 0.000000 6.622425 3.073548 -1.691514 -0.881406 -32.349108 -3.949685 6.212991 5.901143 -5.401913 13.023672 6.379579 -56.590733 -2.685906 -37.347123 -11.499536 0.000000 0.000000 0.000000 6.773111 3.549762 1.296855 -5.401963 3.862267 6.979246 -4.162197 -1.715099 0.743597 8.269007 9.399846 51.068614 0.967528 14.571947 21.972650 0.000000 0.000000 0.000000 
0.751914 104.288200 -7.509943 0.000000 0.000000 0.000000 -7.978223 -4.878085 9.269870 5.848916 21.494243 -7.546525 2.889878 3.004574 2.988841 -1.504115 1.145316 2.753980 5.499305 -1.990600 -2.783571 0.000000 0.000000 0.000000 -8.207452 -4.660107 9.136704 -7.721802 -8.785984 -13.745232 19.011172 7.856353 -3.596369 -3.307437 -12.908160 27.774577 -4.010410 7.618131 -29.726097 0.000000 0.000000 0.000000 -10.580838 -3.784870 8.386960 -0.634265 -2.473387 -0.230918 8.318674 2.950869 -0.800821 0.294671 -0.057169 0.195031 0.000000 0.000000 0.000000 11.081701 4.170971 -0.405275 -1.210235 -6.641370 -0.434287 -32.307283 -42.074870 -27.741348 0.000000 0.000000 0.000000 7.190643 2.973741 -1.687409 -0.568226 -32.996231 -3.572654 7.224661 1.712958 -5.377536 17.301007 4.797017 -58.463312 -0.886367 -36.710655 -10.060490 0.000000 0.000000 0.000000 7.147025 3.490494 1.202889 -5.483132 4.656019 5.855257 -1.906270 0.414611 1.103762 9.087586 11.373791 51.389206 0.332451 17.853985 21.824889 0.000000 0.000000 0.000000 
0.367647 105.029907 -6.892630 0.000000 0.000000 0.000000 -8.051455 -4.183438 8.890593 4.695793 20.713527 -6.889742 2.491541 3.423942 3.218298 1.440173 1.363520 3.047588 3.011146 -1.839615 -3.162355 0.000000 0.000000 0.000000 -8.217458 -3.971809 8.817395 -5.741514 -9.207905 -13.195975 15.676420 6.906478 -3.575920 -3.255240 -12.549874 26.796176 -3.942660 7.235672 -27.770856 0.000000 0.000000 0.000000 -10.529055 -3.496378 7.931637 -0.276665 -2.415409 0.126434 9.275561 2.548008 -0.993767 0.286778 -0.062385 0.186320 0.000000 0.000000 0.000000 12.019960 3.906143 -0.677905 -2.085469 -6.098033 -0.866751 -31.016490 -41.264643 -24.919891 0.000000 0.000000 0.000000 8.592462 2.687419 -1.837072 0.132367 -32.500284 -2.222959 7.236547 -1.014541 -4.513301 23.366437 2.023864 -59.010499 -0.170099 -40.875615 -6.924824 0.000000 0.000000 0.000000 8.446350 3.161766 0.722261 -5.052355 6.007731 3.749807 -0.217526 1.274761 1.175826 12.723007 15.023421 51.942909 0.471501 23.020067 19.022483 0.000000 0.000000 0.000000 
0.064839 105.823929 -6.441923 0.000000 0.000000 0.000000 -8.155842 -3.806214 8.282517 3.304380 20.245710 -6.092447 2.610022 3.822214 3.678857 4.573242 1.547287 3.085711 -0.214913 -1.607433 -3.720165 0.000000 0.000000 0.000000 -8.146402 -3.602172 8.277709 -4.488623 -9.279767 -12.355885 13.251580 5.550642 -3.574693 -2.410652 -12.418168 24.501487 -1.693320 6.291334 -24.519708 0.000000 0.000000 0.000000 -10.546598 -2.885743 7.409032 0.033482 -2.397303 0.608849 10.578868 1.874885 -1.227981 0.160571 -0.146074 0.171811 0.000000 0.000000 0.000000 13.294339 3.370126 -1.088752 -2.774214 -5.067216 -1.552509 -28.559748 -40.027484 -20.911804 0.000000 0.000000 0.000000 10.434707 2.191002 -2.031170 1.111853 -30.889356 -0.053322 6.560736 -2.298687 -4.355031 29.834324 -0.749338 -57.990492 0.374660 -49.397195 -1.509790 0.000000 0.000000 0.000000 10.364039 2.558384 0.071137 -4.240864 7.860365 1.274532 0.843196 0.610798 1.351428 17.237278 18.802560 52.710790 1.956413 29.579825 13.380635 0.000000 0.000000 0.000000 
